<svg width="138" height="394" viewBox="0 0 138 394" fill="none" xmlns="http://www.w3.org/2000/svg">
<path d="M125.77 365.8C126.143 365.773 126.577 365.707 127.07 365.6C127.577 365.493 128.09 365.36 128.61 365.2C129.143 365.053 129.643 364.893 130.11 364.72L130.71 366.82C130.297 367.007 129.857 367.173 129.39 367.32C128.923 367.48 128.463 367.62 128.01 367.74L131.75 367.74L131.75 370.22L127.01 370.22C127.583 370.367 128.217 370.493 128.91 370.6C129.603 370.72 130.237 370.807 130.81 370.86L130.21 373.36C129.423 373.187 128.643 373.007 127.87 372.82C127.097 372.633 126.437 372.453 125.89 372.28L126.43 370.22L125.49 370.22L125.49 373.28L122.97 373.28L122.97 371.24C122.303 371.587 121.65 371.973 121.01 372.4C120.37 372.827 119.823 373.247 119.37 373.66C119.143 373.353 118.83 373.007 118.43 372.62C118.043 372.233 117.677 371.92 117.33 371.68C117.717 371.427 118.157 371.173 118.65 370.92C119.157 370.68 119.69 370.447 120.25 370.22L116.09 370.22L116.09 367.74L119.95 367.74C119.377 367.473 118.83 367.18 118.31 366.86C117.803 366.54 117.363 366.193 116.99 365.82C117.417 365.713 117.903 365.54 118.45 365.3C119.01 365.06 119.483 364.84 119.87 364.64C120.257 365.053 120.723 365.447 121.27 365.82C121.83 366.193 122.397 366.52 122.97 366.8L122.97 364.8L125.49 364.8L125.49 367.74L126.37 367.74L125.77 365.8ZM127.57 362.6C127.957 362.453 128.41 362.207 128.93 361.86C129.463 361.527 129.937 361.187 130.35 360.84L131.53 362.78C131.13 363.127 130.683 363.487 130.19 363.86C129.697 364.233 129.257 364.507 128.87 364.68L127.57 362.6ZM129.23 360.36L129.23 355.58L131.41 355.58L131.41 360.36L129.23 360.36ZM126.29 361.3L126.29 354.54L128.61 354.54L128.61 361.3L126.29 361.3ZM127.15 362.62C126.777 363.033 126.343 363.447 125.85 363.86C125.357 364.287 124.917 364.6 124.53 364.8L123.09 362.82C123.477 362.647 123.93 362.36 124.45 361.96C124.97 361.56 125.437 361.16 125.85 360.76L127.15 362.62ZM123.41 360.6L123.41 355.36L125.59 355.36L125.59 360.6L123.41 360.6ZM122.77 355.36L122.77 360.6L120.59 360.6L120.59 355.36L122.77 355.36ZM117.35 364.56C116.803 364.867 116.39 365.293 116.11 365.84C115.83 366.387 115.67 367.04 115.63 367.8C115.617 368.293 115.61 368.893 115.61 369.6C115.61 370.307 115.623 371.033 115.65 371.78C115.677 372.54 115.717 373.213 115.77 373.8C115.57 373.707 115.31 373.607 114.99 373.5C114.683 373.393 114.37 373.3 114.05 373.22C113.73 373.14 113.45 373.08 113.21 373.04C113.183 372.533 113.163 371.953 113.15 371.3C113.137 370.647 113.137 369.993 113.15 369.34C113.15 368.7 113.157 368.127 113.17 367.62C113.223 366.713 113.403 365.92 113.71 365.24C114.017 364.573 114.517 363.98 115.21 363.46C114.863 363.207 114.517 362.94 114.17 362.66C113.81 362.38 113.417 362.047 112.99 361.66L114.89 360.78L113.95 360.78L113.95 357.38L113.09 357.38L113.09 355.14L119.93 355.14L119.93 360.78L115.85 360.78C116.037 360.993 116.223 361.207 116.41 361.42C116.61 361.633 116.817 361.847 117.03 362.06L120.09 362.06L120.09 360.9L122.55 360.9L122.55 364.56L117.35 364.56ZM117.83 358.44L117.83 357.38L116.05 357.38L116.05 358.44L117.83 358.44ZM113.71 388.58L115.69 385.64C116.117 386.467 116.643 387.207 117.27 387.86C117.91 388.527 118.617 389.047 119.39 389.42C120.177 389.807 120.99 390 121.83 390C123.163 389.987 124.29 389.613 125.21 388.88C126.13 388.16 126.73 387.153 127.01 385.86C126.797 385.873 126.583 385.88 126.37 385.88C124.917 385.88 123.543 385.68 122.25 385.28C120.957 384.893 119.803 384.4 118.79 383.8C118.123 383.4 117.51 382.907 116.95 382.32C116.39 381.747 115.943 381.127 115.61 380.46C115.277 379.807 115.11 379.153 115.11 378.5C115.11 377.673 115.343 376.98 115.81 376.42C116.277 375.86 116.897 375.44 117.67 375.16C118.457 374.893 119.317 374.76 120.25 374.76C120.89 374.76 121.63 374.86 122.47 375.06C123.323 375.273 124.183 375.607 125.05 376.06C125.93 376.527 126.737 377.127 127.47 377.86C128.217 378.593 128.817 379.48 129.27 380.52C129.737 381.573 129.97 382.8 129.97 384.2C129.97 386 129.637 387.573 128.97 388.92C128.303 390.267 127.33 391.313 126.05 392.06C124.783 392.807 123.237 393.18 121.41 393.18C120.463 393.18 119.517 392.993 118.57 392.62C117.623 392.247 116.73 391.713 115.89 391.02C115.063 390.34 114.337 389.527 113.71 388.58ZM120.23 377.76C119.763 377.76 119.337 377.827 118.95 377.96C118.577 378.093 118.39 378.32 118.39 378.64C118.39 378.8 118.443 379.027 118.55 379.32C118.657 379.613 118.897 379.947 119.27 380.32C119.643 380.693 120.23 381.08 121.03 381.48C121.963 381.947 122.897 382.273 123.83 382.46C124.763 382.66 125.603 382.76 126.35 382.76C126.563 382.76 126.77 382.753 126.97 382.74C126.757 381.953 126.397 381.247 125.89 380.62C125.397 379.993 124.823 379.467 124.17 379.04C123.477 378.56 122.763 378.227 122.03 378.04C121.31 377.853 120.71 377.76 120.23 377.76Z" fill="#E24640"/>
<path d="M-0.000229883 286.308L7.32757 285.784L42.7889 300.309L1.43916 303.711L-0.000229883 286.308ZM43.4431 305.936L45.7985 306.852L55.22 313.918L47.4996 315.88C46.0602 312.609 44.7517 309.207 43.4431 305.936ZM28.1333 363.773L10.2063 365.212L1.83171 369.269C1.17744 368.222 0.654033 367.175 0.26147 365.997L10.2063 365.212L20.5438 360.109C21.9832 361.156 24.6002 362.333 29.0492 363.511L28.1333 363.773L29.7035 363.642C37.5547 365.867 50.3784 368.353 70.2681 371.624C63.0712 368.745 55.8742 365.736 49.0698 362.203L82.6992 359.586C83.746 359.978 84.662 360.24 85.578 360.632L85.8397 359.324L98.1399 358.277L86.6248 345.453L71.0532 350.295C66.0808 347.94 61.3701 345.192 56.7902 342.313L73.4086 334.2C75.5023 335.378 77.5959 336.424 79.6896 337.602L86.6248 345.453L102.458 340.35L84.5311 328.573L78.5119 331.583C74.3246 328.442 70.5298 325.433 67.2585 322.161C68.1744 321.507 69.2213 320.329 70.399 319.152L84.5311 328.573L96.5697 322.685C104.29 327.265 113.057 331.19 122.217 334.2L102.458 340.35L119.469 351.734C114.497 349.902 109.524 348.07 104.944 346.108L103.636 357.884L98.1399 358.277L102.851 363.773L99.4484 394C99.4484 394 93.4292 393.215 91.3355 392.822C33.6291 384.055 12.0383 379.475 6.01902 373.849C5.10305 373.063 4.18708 372.147 3.53282 371.493L28.1333 363.773ZM51.0326 343.491L34.5451 353.828C21.9832 347.416 10.9915 339.565 3.2711 330.274C6.935 326.741 11.7766 320.199 14.3937 314.964C22.7683 327.003 35.8536 336.424 51.0326 343.491ZM54.1731 315.226L46.5836 306.197L59.4073 315.226L54.1731 315.226ZM41.6112 302.926L38.3398 302.926L4.31794 285.261L22.3757 285.392L41.6112 302.926ZM46.9762 305.543L49.7241 307.637L47.4996 306.721C47.3687 306.328 47.107 305.936 46.9762 305.543ZM69.6138 333.677L52.9954 342.051C43.3123 336.032 34.9377 329.097 29.311 322.031C33.2366 318.89 38.3398 313.263 41.4803 308.684C47.4996 318.236 57.837 326.741 69.6138 333.677ZM42.658 359.586L63.4637 349.902C69.483 351.865 75.764 353.566 82.0449 355.006L49.0698 361.941C46.9762 361.156 44.8825 360.502 42.658 359.586ZM122.348 301.094L113.319 301.879L121.824 295.467L122.348 301.094ZM77.4651 329.882L83.2226 326.349L68.1745 318.236C71.1841 314.834 74.5863 310.254 76.2874 307.506C78.2502 309.207 80.3438 310.908 82.6992 312.609L82.83 305.412L64.9031 305.02L67.5202 315.357L63.8563 315.88L49.9858 308.422L47.3687 306.066C47.2379 305.543 47.107 305.15 46.9762 304.627L45.7985 304.496L26.9556 286.7L42.3963 287.093C40.5644 280.419 38.8633 274.138 37.4239 268.512L55.7434 264.455C56.7902 270.867 58.6221 278.849 60.7158 287.485L83.3535 288.009L83.4843 281.204C77.7268 279.765 72.6235 278.195 68.4362 276.363C70.7915 273.615 75.2405 266.941 77.3342 263.408C87.4099 267.465 103.636 269.689 118.815 270.998L115.805 286.7C111.094 286.177 106.253 285.522 101.411 284.737L101.28 288.401L125.75 288.925L125.488 300.571L116.329 306.197L100.888 305.805L100.757 315.226L86.2322 314.834C88.7185 316.535 91.5972 317.974 94.6069 319.414L83.2226 326.349L102.066 336.424L121.17 328.573C122.348 328.835 123.656 329.097 124.834 329.358L121.17 346.5C120.778 346.369 120.385 346.369 119.992 346.238L102.066 336.424L86.7557 342.967L99.4484 354.744L104.813 353.828L104.683 359.716L99.4484 354.744L87.1482 356.838L87.2791 354.613C82.0449 353.174 76.8108 351.342 71.7075 349.248L86.7557 342.967L79.1661 335.77C82.0449 336.948 84.7928 337.995 87.5408 339.042L87.6716 335.116C84.0077 333.415 80.7364 331.714 77.4651 329.882ZM34.0217 352.127L51.2943 343.36C55.8742 345.846 60.3232 348.201 65.1648 350.295L43.3123 357.492C40.1718 355.66 37.0313 353.959 34.0217 352.127ZM5.2339 376.466L12.9543 371.231L3.40197 373.325C2.7477 372.278 2.35514 370.97 2.09342 369.792C1.0466 365.997 0.784893 360.632 0.784893 354.875C6.14988 354.221 14.0011 351.996 19.1044 348.986C18.7118 353.305 18.8427 357.23 18.9735 359.716C19.1044 361.548 19.7586 362.726 21.7215 364.165C21.8523 364.296 22.114 364.427 22.3757 364.558L12.9543 371.231L30.4886 367.044L31.4046 366.652C31.6663 366.782 31.7972 366.782 32.0589 366.782L30.4886 367.044L7.32756 378.298C6.54244 377.643 5.88817 377.12 5.2339 376.466Z" fill="white"/>
<path d="M105.729 169.848L87.8023 169.324C88.8491 163.305 90.1576 156.893 91.7279 150.351L109.786 151.79C108.215 158.202 106.776 164.221 105.729 169.848ZM30.881 149.566L34.6757 156.108L34.0215 168.932C29.3108 169.717 26.6937 172.596 25.516 177.437L4.84115 182.541C5.10286 164.483 11.7764 152.444 27.2171 150.089C28.3948 149.827 29.7033 149.696 30.881 149.566ZM79.5585 170.633L61.8933 174.689C61.1082 166.446 60.4539 158.202 60.0613 149.958L78.5117 146.948C78.6425 155.454 79.0351 163.305 79.5585 170.633ZM86.8863 214.992L60.7156 213.422L72.3616 243.257L67.2583 243.911C65.9497 238.023 64.9029 231.611 63.9869 224.675C60.7156 226.246 57.4443 227.947 54.8272 229.648C51.9484 231.611 49.7239 233.312 47.2377 235.929L33.2364 226.246C33.8906 222.844 34.6757 217.609 35.5917 212.114L60.7156 213.422L58.2294 207.141C59.6688 206.356 60.9773 205.702 62.4167 205.047C62.4167 202.169 62.2858 199.159 62.2858 196.019L80.0819 191.57C80.0819 193.794 80.0819 195.888 80.2128 197.981C81.3905 197.72 82.4373 197.327 83.4841 196.935C85.9703 196.149 88.064 195.495 89.8959 194.972C89.7651 193.14 89.8959 191.177 89.8959 189.214L107.43 184.896C107.43 186.728 107.299 188.56 107.299 190.261C111.094 189.214 115.02 187.906 119.338 186.597L121.039 207.795C116.459 208.319 112.272 208.973 108.215 209.627C108.346 211.852 108.608 213.945 109.001 216.039L91.0736 215.123C91.0736 214.6 90.9428 214.207 90.9428 213.684C89.5034 214.076 88.1948 214.469 86.8863 214.992ZM47.7611 172.857L49.7239 172.988L49.2005 174.428C48.8079 173.904 48.1537 173.381 47.7611 172.857ZM24.4692 214.731L5.10285 212.506L4.84115 212.637C4.84115 212.506 4.84115 212.506 4.84115 212.506L5.10285 212.506L24.6 208.973C24.6 210.936 24.4692 212.899 24.4692 214.731ZM36.1151 172.465L37.2928 159.51L44.8823 173.773C42.1344 172.727 39.3865 172.072 36.3768 172.334C36.246 172.465 36.1151 172.465 36.1151 172.465ZM26.1703 228.47L24.2075 228.209L25.516 222.713C25.6469 224.675 25.7777 226.769 26.1703 228.47ZM90.0268 216.039L107.954 216.693C109.001 222.974 110.44 229.125 112.403 235.405L94.3449 237.761C92.513 231.087 91.0736 223.76 90.0268 216.039ZM107.299 181.756L90.2885 188.036C89.7651 182.279 89.2417 176.129 88.98 169.586L106.514 166.184C106.645 171.68 106.907 176.914 107.299 181.756ZM77.5957 193.271L59.6688 196.804C59.9305 189.607 60.4539 181.886 61.239 174.035L79.2968 173.381C78.6425 180.578 77.9883 187.121 77.5957 193.271ZM53.3878 201.253L37.5545 205.047C37.9471 202.038 38.3396 199.29 38.7322 196.673L53.6495 198.766C53.6495 199.552 53.5187 200.337 53.3878 201.253ZM2.61663 213.815C1.70065 208.188 0.915533 202.169 0.392118 196.804C-0.00044445 191.439 -0.131296 186.466 0.261267 181.886L21.067 177.83C19.7584 182.148 19.4967 187.906 20.151 195.233C20.5436 199.29 20.9361 203.215 21.5904 207.141L2.87834 213.815L22.3755 212.899C23.0298 216.432 23.684 219.834 24.4692 223.105L23.8149 228.601L5.62626 229.124C4.57944 224.675 3.5326 219.441 2.61663 213.815ZM37.5545 152.052L36.1151 158.202L33.6289 151.136C35.0683 151.398 36.246 151.659 37.5545 152.052ZM44.0972 174.559L37.0311 160.165L37.8162 153.753C43.3121 154.538 48.1537 156.239 52.7335 158.202L50.509 176.652L48.5462 176.914C46.976 175.998 45.6674 175.213 44.0972 174.559ZM85.9703 241.556L72.3616 244.303L58.8836 215.385L33.7598 215.647C34.0215 212.375 34.2832 208.973 34.5449 205.833L50.1165 200.86C49.9856 205.047 49.8547 210.02 49.7239 213.03C51.8176 211.59 54.0421 210.412 56.1357 209.235L58.8836 215.385L85.1852 215.254C84.9235 215.254 84.7926 215.385 84.6618 215.385C83.2224 216.039 81.5213 216.693 79.6894 217.479C81.5213 227.816 83.8767 235.275 85.9703 241.556Z" fill="white"/>
<path d="M21.8523 74.5865L20.8054 82.4377L2.09338 82.0452L4.31789 65.0342L40.9569 75.2408L40.826 77.2036L21.8523 74.5865ZM61.37 75.5025L61.37 77.4653L42.9197 78.9047L43.1814 73.6705L39.91 73.5397L39.91 71.446L61.37 75.5025ZM21.8523 6.01926L22.2448 25.1239L3.40192 13.6088L3.27106 6.41182L21.8523 6.01926ZM62.9403 19.3663L60.454 48.9392L43.1814 35.723L44.6208 17.7961L62.9403 19.3663ZM90.0269 12.0385L78.9044 34.6762L79.4278 29.0495C73.1468 24.6005 67.3893 20.1514 62.9403 15.8333C66.6042 12.4311 73.1468 4.44902 76.1565 -2.11632e-06C79.8204 4.18731 84.6619 8.37462 90.0269 12.0385ZM82.1757 119.469L82.3066 80.6058L100.888 83.2228L100.757 119.469L82.1757 119.469ZM63.4637 110.44L55.0891 111.487L60.5849 87.9335L63.4637 110.44ZM40.826 54.8276L44.0974 72.4928L6.14983 70.7917L1.04655 15.9641L20.6746 26.1707L23.4225 56.3979L40.826 54.8276ZM124.18 54.5659L124.572 70.53L99.4484 74.3248L74.5862 59.2766L68.9595 76.1567L63.4637 76.2876L63.4637 77.3344L41.6111 74.9791L39.3866 57.0521L44.4899 56.9213L44.0974 40.9571L62.6786 52.2105L62.8094 56.3979L69.3521 56.267L74.5862 59.2766L75.633 56.0053L82.83 55.8744L82.3066 36.5081L90.2886 12.5619C99.8409 17.5344 110.833 21.46 121.955 23.9462L118.03 43.8359C112.272 42.3965 106.645 40.5646 100.888 38.4709L101.411 55.2202L124.18 54.5659ZM72.7543 57.183L98.5324 70.9226L82.5683 73.9322L82.5683 73.1471L68.0435 74.3248L72.7543 57.183L67.5201 54.4351L73.6702 53.9116L72.7543 57.183ZM100.888 73.4088L98.5324 71.5769L123.918 70.3992L123.656 74.3248L100.888 72.7545L100.888 73.4088ZM83.8768 80.4749L83.746 77.4653L99.7101 75.1099L102.327 76.5493L102.458 82.4377L83.8768 80.4749ZM45.5367 113.843L42.1345 82.3069L60.1923 78.2504L61.37 90.0272L55.4816 113.319L45.6676 114.497L45.5367 113.843ZM2.48593 124.311L0.653988 84.5314L19.1043 81.5217L21.0671 123.395L2.48593 124.311Z" fill="white"/>
</svg>
