<svg width="81" height="83" viewBox="0 0 81 83" fill="none" xmlns="http://www.w3.org/2000/svg">
<path d="M58.2917 55.5715L40.2902 55.643L40.2188 47.1422L58.2203 47.0708L58.2917 55.5715ZM53.7913 82.2881L47.3622 73.8588C57.7202 67.0011 64.5065 60.8577 73.1501 49.9282L80.9365 55.8573C72.7215 66.8582 64.6494 74.6446 53.7913 82.2881Z" fill="black"/>
<path d="M33.7702 40.9277L40.1993 50.1428C37.1276 52.5001 32.0557 55.2861 26.341 58.1435H29.1269L29.1269 81.1454H20.3405L20.3405 61.0009C16.3401 62.8582 12.2684 64.644 8.69663 66.1442L4.69629 59.0007C15.1972 53.4288 24.0551 47.714 33.7702 40.9277Z" fill="black"/>
<path d="M80.3566 0.000244141L80.9995 9.42961L75.6419 10.0011L74.6418 0.500284L80.3566 0.000244141ZM72.8559 0.786023L73.856 10.144L68.3555 10.9297L66.7125 1.64324L72.8559 0.786023ZM72.213 17.4303L77.0706 17.4303L77.2134 25.931L71.3558 25.931C70.2128 35.9319 68.6413 44.7898 66.7125 52.4333L58.3547 50.7188C59.6405 45.4327 60.7835 36.5033 61.3549 25.931L55.3544 26.0024L54.9973 38.6464H45.8536V26.0024H39.7103L39.5674 17.5017H45.8536V12.5013H55.7116L55.5687 17.5017L61.7121 17.4303C61.7836 15.573 61.7836 13.7157 61.7836 11.787L72.6416 12.5013L72.213 17.4303Z" fill="black"/>
<path d="M38.9319 2.5L39.5748 11.9294L34.2172 12.5009L33.2171 3.00004L38.9319 2.5ZM31.4312 3.28579L32.4313 12.6437L26.9309 13.4295L25.2879 4.143L31.4312 3.28579ZM35.5744 14.9296L35.7173 23.4303L2.0716 23.5018L1.92874 15.0011L35.5744 14.9296ZM0 27.7879L37.5032 27.7164L37.646 36.2171H24.8592C23.6449 42.7177 22.0733 47.7181 20.216 52.5757L11.0009 51.0041C12.2153 46.0037 13.0011 41.2176 13.5011 36.2886H0.14287L0 27.7879Z" fill="black"/>
</svg>
